<svg width="159" height="30" viewBox="0 0 159 30" fill="none" xmlns="http://www.w3.org/2000/svg">
<g id="Group">
<path id="Vector" d="M0 14.7751C0 9.50748 3.91863 6.52033 8.06209 6.52033C10.6317 6.52033 12.8158 7.67665 13.9722 9.73232V0H17.0235V14.743C17.0235 19.9143 13.4904 23.2227 8.57601 23.2227C3.66167 23.2227 0 19.7537 0 14.7751ZM13.9722 14.8715C13.9722 11.6595 11.788 9.34688 8.5439 9.34688C5.29979 9.34688 3.08351 11.6595 3.08351 14.8715C3.08351 18.0835 5.26767 20.3961 8.5439 20.3961C11.8201 20.3961 13.9722 18.0835 13.9722 14.8715Z" fill="#404040"/>
<path id="Vector_2" d="M19.85 14.7751C19.85 9.50748 23.7687 6.52033 27.9121 6.52033C30.4817 6.52033 32.6659 7.67665 33.8222 9.73232V0H36.8736V14.743C36.8736 19.9143 33.3404 23.2227 28.426 23.2227C23.5117 23.2227 19.85 19.7537 19.85 14.7751ZM33.8222 14.8715C33.8222 11.6595 31.638 9.34688 28.3939 9.34688C25.1498 9.34688 22.9335 11.6595 22.9335 14.8715C22.9335 18.0835 25.1177 20.3961 28.3939 20.3961C31.6701 20.3961 33.8222 18.0835 33.8222 14.8715Z" fill="#404040"/>
<path id="Vector_3" d="M40.3426 14.5505C40.3426 9.2507 43.4903 6.52051 48.1798 6.52051C52.8694 6.52051 56.0171 9.21858 56.0171 14.5505V22.8053H52.9657V14.5505C52.9657 11.1136 51.0706 9.34706 48.1798 9.34706C45.2891 9.34706 43.394 11.1136 43.394 14.5505V22.8053H40.3426V14.5505Z" fill="#404040"/>
<path id="Vector_4" d="M59.4219 24.7004H62.5375C63.2762 26.5312 65.1392 27.3342 67.4518 27.3342C70.6959 27.3342 72.848 25.7924 72.848 21.649V19.8181C71.7559 21.8738 69.5396 23.0944 66.8737 23.0944C62.7623 23.0944 58.8437 20.2678 58.8437 14.8717C58.8437 10.0537 62.3769 6.52051 67.3876 6.52051C72.3983 6.52051 75.8672 9.89309 75.8672 15.0002V21.5205C75.8672 27.6233 72.1413 30.0001 67.4518 30.0001C63.5653 30.0001 60.5139 28.362 59.4219 24.7004ZM72.848 14.8717C72.848 11.6597 70.6638 9.34706 67.3876 9.34706C64.1113 9.34706 61.9272 11.6597 61.9272 14.8717C61.9272 18.0837 64.1113 20.2357 67.3876 20.2357C70.6638 20.2357 72.848 18.0837 72.848 14.8717Z" fill="#404040"/>
<path id="Vector_5" d="M78.6934 14.8714C78.6934 10.0534 82.2266 6.52026 87.2373 6.52026C92.248 6.52026 95.7812 10.0534 95.7812 14.8714C95.7812 19.6894 92.248 23.2226 87.2373 23.2226C82.2266 23.2226 78.6934 19.6894 78.6934 14.8714ZM92.6977 14.8714C92.6977 11.6594 90.5135 9.34681 87.2373 9.34681C83.9611 9.34681 81.7769 11.6594 81.7769 14.8714C81.7769 18.0834 83.9611 20.396 87.2373 20.396C90.5135 20.396 92.6977 18.0834 92.6977 14.8714Z" fill="#404040"/>
<path id="Vector_6" d="M97.9658 14.8717C97.9658 10.0537 101.499 6.52051 106.51 6.52051C111.52 6.52051 115.054 10.0537 115.054 14.8717C115.054 19.6897 111.52 23.2228 106.51 23.2228C101.499 23.2228 97.9658 19.6897 97.9658 14.8717ZM111.97 14.8717C111.97 11.6597 109.786 9.34706 106.51 9.34706C103.233 9.34706 101.049 11.6597 101.049 14.8717C101.049 18.0837 103.233 20.3963 106.51 20.3963C109.786 20.3963 111.97 18.0837 111.97 14.8717Z" fill="#404040"/>
<path id="Vector_7" d="M117.88 13.4582C117.88 8.76865 120.642 6.52026 124.721 6.52026C128.801 6.52026 131.531 8.76865 131.531 13.4903V13.6509H128.511V13.4582C128.511 10.5352 126.97 9.34681 124.721 9.34681C122.473 9.34681 120.931 10.5352 120.931 13.4582V22.805H117.88V13.4582Z" fill="#404040"/>
<path id="Vector_8" d="M133.94 13.619C133.94 8.7689 136.766 6.52051 140.492 6.52051C142.933 6.52051 144.989 7.61258 146.081 9.66825C147.173 7.61258 149.197 6.52051 151.67 6.52051C155.396 6.52051 158.222 8.7689 158.222 13.619V22.8053H155.171V13.619C155.171 10.664 153.597 9.34706 151.381 9.34706C149.165 9.34706 147.623 10.7282 147.623 13.619V22.8053H144.571V13.619C144.571 10.7282 142.933 9.34706 140.781 9.34706C138.629 9.34706 136.991 10.664 136.991 13.619V22.8053H133.94V13.619Z" fill="#404040"/>
</g>
</svg>
